<svg xmlns="http://www.w3.org/2000/svg" xmlns:xlink="http://www.w3.org/1999/xlink" width="650.688" height="53.531" viewBox="0 0 650.688 53.531">
  <defs>
    <clipPath id="clip-path">
      <rect id="Rectangle_153" data-name="Rectangle 153" width="650.688" height="53.531" transform="translate(0 0)" fill="#fff"/>
    </clipPath>
  </defs>
  <g id="Group_135" data-name="Group 135" transform="translate(0 0)">
    <g id="Group_136" data-name="Group 136">
      <g id="Group_135-2" data-name="Group 135" clip-path="url(#clip-path)">
        <path id="Path_1766" data-name="Path 1766" d="M263.535,26.468a19.914,19.914,0,0,0-3.366-1.048,14.287,14.287,0,0,0,1.313-.664,12.269,12.269,0,0,0,4.826-4.96,13.638,13.638,0,0,0,1.471-6.161A11.35,11.35,0,0,0,263.8,4.426,16.792,16.792,0,0,0,252.72,1.105H216.234l3.97,24.986-3.97,26.355H254.09a21.516,21.516,0,0,0,9.517-1.88,13.025,13.025,0,0,0,5.715-5.135A14.569,14.569,0,0,0,271.2,38a12.59,12.59,0,0,0-1.88-6.879,12.343,12.343,0,0,0-5.786-4.656M252,12.364a4.389,4.389,0,0,1,1.473,3.39,5.009,5.009,0,0,1-1.714,4.007,6.169,6.169,0,0,1-4.175,1.471H232.96l-1.671-10.2H247.86A5.958,5.958,0,0,1,252,12.366m3.148,28.65a7.153,7.153,0,0,1-4.826,1.51h-19.1l1.786-11.568h16.429a8.4,8.4,0,0,1,5.579,1.607,5.347,5.347,0,0,1,1.881,4.279,5.216,5.216,0,0,1-1.745,4.175" fill="#fff"/>
        <rect id="Rectangle_150" data-name="Rectangle 150" width="14.171" height="51.341" transform="translate(291.84 1.102)" fill="#fff"/>
        <path id="Path_1767" data-name="Path 1767" d="M450.847,3.362a39.857,39.857,0,0,0-32,0,25.543,25.543,0,0,0-10.677,9.37,25.738,25.738,0,0,0-3.8,14.035,24.9,24.9,0,0,0,14.477,23.409,39.857,39.857,0,0,0,32,0A25.785,25.785,0,0,0,461.528,40.8a25.589,25.589,0,0,0,3.83-14.033,25.568,25.568,0,0,0-3.828-14.033,25.844,25.844,0,0,0-10.681-9.379M449.07,34.328a12.937,12.937,0,0,1-5.607,4.891,22.508,22.508,0,0,1-17.218,0,12.683,12.683,0,0,1-5.607-4.891,14.193,14.193,0,0,1-1.939-7.563A14.192,14.192,0,0,1,420.64,19.2a12.681,12.681,0,0,1,5.607-4.893,22.508,22.508,0,0,1,17.218,0,12.906,12.906,0,0,1,5.607,4.893,13.987,13.987,0,0,1,1.986,7.565,13.987,13.987,0,0,1-1.986,7.565" fill="#fff"/>
        <path id="Path_1768" data-name="Path 1768" d="M473.386,13.7h17.308V52.443h14.171V13.7h17.31V1.1H473.386Z" fill="#fff"/>
        <path id="Path_1769" data-name="Path 1769" d="M646.852,12.732a25.844,25.844,0,0,0-10.681-9.379,39.849,39.849,0,0,0-32,0,25.544,25.544,0,0,0-10.679,9.379,25.738,25.738,0,0,0-3.8,14.035,24.907,24.907,0,0,0,14.479,23.411,39.849,39.849,0,0,0,32,0A25.783,25.783,0,0,0,646.852,40.8a25.581,25.581,0,0,0,3.83-14.033,25.579,25.579,0,0,0-3.83-14.035m-12.462,21.6a12.925,12.925,0,0,1-5.607,4.891,22.513,22.513,0,0,1-17.22,0,12.683,12.683,0,0,1-5.607-4.891,14.19,14.19,0,0,1-1.941-7.565,14.186,14.186,0,0,1,1.937-7.567,12.681,12.681,0,0,1,5.607-4.893,22.513,22.513,0,0,1,17.22,0,12.905,12.905,0,0,1,5.607,4.893,13.967,13.967,0,0,1,1.986,7.565,13.967,13.967,0,0,1-1.986,7.565" fill="#fff"/>
        <rect id="Rectangle_151" data-name="Rectangle 151" width="13.713" height="51.338" transform="translate(329.043 1.102)" fill="#fff"/>
        <path id="Path_1770" data-name="Path 1770" d="M342.753,1.106,360.6,52.444h13.713L356.467,1.106Z" fill="#fff"/>
        <rect id="Rectangle_152" data-name="Rectangle 152" width="13.713" height="51.338" transform="translate(374.319 1.102)" fill="#fff"/>
        <path id="Path_1771" data-name="Path 1771" d="M532.953,13.7h17.308V52.443h14.167V13.7h17.311V1.1H532.953Z" fill="#fff"/>
        <path id="Path_1772" data-name="Path 1772" d="M185.236,31.9a16.378,16.378,0,0,0,6.847-5.751,15.06,15.06,0,0,0,2.45-8.546,15.177,15.177,0,0,0-2.461-8.663,16.728,16.728,0,0,0-6.847-5.753A23.645,23.645,0,0,0,174.966,1.1H144.5V52.445h14.171V33.963H166.1l13.8,18.482h16.357L181.544,33.174a20.314,20.314,0,0,0,3.692-1.264M158.674,11.639H172.98a8.288,8.288,0,0,1,5.342,1.54,5.335,5.335,0,0,1,1.915,4.417,5.36,5.36,0,0,1-1.915,4.38,8.178,8.178,0,0,1-5.342,1.576H158.674Z" fill="#fff"/>
        <path id="Path_1773" data-name="Path 1773" d="M29.8,12.17V1.054H.121V12.22H29.747L0,43.209v9.273H49.5V41.322H19.461L49.5,10.035V1.054H40.463Z" fill="#fff"/>
      </g>
      <path id="Path_1765" data-name="Path 1765" d="M71.485,1.1l3.9,25.663-3.9,25.665H119.2V40.942H86.712L88.183,31.9h27.481V21.637H88.183L86.717,12.6H118.86V1.1Z" fill="#fff"/>
    </g>
  </g>
</svg>
